# xmcd
#
# Track frame offsets:
#	150
#	23056
#	40627
#	58676
#	77866
#	97906
#	114315
#	128839
#	143531
#	159528
#	182949
#	196550
#	218736
#	234449
#	246389
#	262020
#	276185
#	293215
#	307964
#	323861
#
# Disc length: 4616
#
# Revision: 1
# Processed by: cddbd v1.5.1PL0 Copyright (c) Steve Scherf et al.
# Submitted via: dBpowerAMP V4.0
# Normalized: r0:TRMNUM
#
DISCID=14120614
DTITLE=LOS ROMEROS DE LA PUEBLA - ANTOLOGIA CD 4
DYEAR=2001
DGENRE=SEVILLANAS 
TTITLE0=Sobre los cristales 
TTITLE1=otra razón de vivir
TTITLE2=tu no eres buena
TTITLE3=el cantaro se rompio
TTITLE4=aquella promesa
TTITLE5=tus besos amargos
TTITLE6=así es mi camino
TTITLE7=acuarela del rocio
TTITLE8=que hable despues
TTITLE9=mi valiente costalero
TTITLE10=por la arena adelante
TTITLE11=leyenda del cachorro
TTITLE12=esa es mi gente
TTITLE13=este niño es un tunante
TTITLE14=todo termina en la vida
TTITLE15=a almonte va mi pastora
TTITLE16=las llanuras ardientes
TTITLE17=muriendo por tí
TTITLE18=siempre amanece
TTITLE19=Bodas de plata
EXTD=by picha_nauta
EXTT0=
EXTT1=
EXTT2=
EXTT3=
EXTT4=
EXTT5=
EXTT6=
EXTT7=
EXTT8=
EXTT9=
EXTT10=
EXTT11=
EXTT12=
EXTT13=
EXTT14=
EXTT15=
EXTT16=
EXTT17=
EXTT18=
EXTT19=
PLAYORDER=
